<svg xmlns="http://www.w3.org/2000/svg" viewBox="0 0 219.7 71.76">
  <defs>
    <style>
      .cls-1 {
        fill: #909496;
      }

      .cls-1, .cls-3 {
        opacity: 0.4;
      }

      .cls-15, .cls-2 {
        fill: #00c3ff;
      }

      .cls-2 {
        stroke: #020000;
      }

      .cls-10, .cls-11, .cls-12, .cls-13, .cls-2, .cls-21, .cls-28, .cls-32, .cls-4, .cls-7, .cls-8, .cls-9 {
        stroke-miterlimit: 10;
      }

      .cls-2, .cls-21, .cls-28, .cls-4 {
        stroke-width: 0.23px;
      }

      .cls-25, .cls-27, .cls-3 {
        fill: #2f81a5;
      }

      .cls-10, .cls-11, .cls-12, .cls-13, .cls-4, .cls-7, .cls-8, .cls-9 {
        fill: #fcef03;
        stroke: #000;
      }

      .cls-5 {
        fill: #efd537;
      }

      .cls-6 {
        fill: #ffac33;
      }

      .cls-7 {
        stroke-width: 0.09px;
      }

      .cls-8 {
        stroke-width: 0.17px;
      }

      .cls-9 {
        stroke-width: 0.14px;
      }

      .cls-10 {
        stroke-width: 0.11px;
      }

      .cls-11 {
        stroke-width: 0.13px;
      }

      .cls-12 {
        stroke-width: 0.08px;
      }

      .cls-13 {
        stroke-width: 0.11px;
      }

      .cls-14 {
        fill: #4eb1f4;
      }

      .cls-16 {
        fill: #020000;
      }

      .cls-17 {
        fill: #4bace2;
      }

      .cls-18, .cls-26 {
        fill: #faffff;
      }

      .cls-18 {
        opacity: 0.9;
      }

      .cls-19 {
        fill: #e2f4f7;
      }

      .cls-20 {
        fill: #4aa5d8;
      }

      .cls-21 {
        fill: #000202;
        stroke: #020202;
      }

      .cls-22, .cls-28 {
        fill: #fff;
      }

      .cls-23 {
        fill: #e5eaea;
      }

      .cls-24 {
        fill: #050505;
        opacity: 0.1;
      }

      .cls-25, .cls-30 {
        opacity: 0.2;
      }

      .cls-27 {
        opacity: 0.6;
      }

      .cls-28 {
        stroke: #000102;
      }

      .cls-29 {
        fill: #e2e8ed;
      }

      .cls-30 {
        fill: #9daeba;
      }

      .cls-31 {
        fill: #000102;
      }

      .cls-32 {
        fill: #5c0db7;
        stroke: #fff;
      }

      .cls-33 {
        fill: #7a15bc;
      }
    </style>
  </defs>
  <title>logo_svg</title>
  <g id="Слой_2" data-name="Слой 2">
    <g id="Слой_1-2" data-name="Слой 1">
      <g>
        <g>
          <ellipse class="cls-1" cx="179.62" cy="71.09" rx="18.58" ry="0.67"/>
          <g>
            <path class="cls-2" d="M171.61,63.88a4.34,4.34,0,0,1,1.32,3.45c0,2.44-.81,3.88.89,4a4,4,0,0,0,4.53-3.7c.5-3.24.58-3.93.58-3.93Z"/>
            <path class="cls-2" d="M180.6,63.81s2.52,2.6,2.83,4.26,0,2.6,1.67,2.67,3.06-.5,3.14-4.69-1.74-4.3-1.74-4.3Z"/>
            <path class="cls-3" d="M171.61,63.88a4.34,4.34,0,0,1,1.32,3.45c0,2.44.61-2.44,2.31-2.36s2.95,3.63,3.45.39.18-1.26.18-1.26Z"/>
            <path class="cls-3" d="M180.6,63.81s2.52,2.6,2.83,4.26-.21-3.5,1.45-3.42,3,3,3.08-1.14-1.47-1.75-1.47-1.75Z"/>
          </g>
          <g>
            <path class="cls-4" d="M168.23,16.95s-1.13.7-1.51.3a69.71,69.71,0,0,1-4.86-5.93,8.71,8.71,0,0,1-.81-2.87c-.21-1.34-.26-2.75,1.33-3.27,3-1,8.55,3.5,9.67,4.82s.33,1.68.33,1.68Z"/>
            <path class="cls-5" d="M168.23,16.95s-1.13.7-1.51.3-3.39-4.35-4.41-6a7.9,7.9,0,0,1-.47-2.23c-.25-1.16-.48-2.3,1.24-2.87,3-1,7.86,2.49,9,3.81s.33,1.68.33,1.68Z"/>
            <path class="cls-6" d="M168.23,16.95s-1.12.76-1.51.3-3.28-5-2-3.82,2.05,2.29,2.63,1.79-.17-1.54.33-1.87.72.25,1.88-.43.95-2.27,1.58-2.33,1.53-.21,1.29.52S168.23,16.95,168.23,16.95Z"/>
          </g>
          <g>
            <path class="cls-4" d="M171.31,13.09s-.27-5.84-.2-7.29.41-4.57,3-5.12S181,11.11,181,11.11Z"/>
            <path class="cls-5" d="M171.43,12.56s-.19-5.25-.13-6.7.58-3.71,3.18-4.25c.93-.19,2,1,3.06,2.55a45.65,45.65,0,0,1,3.44,7Z"/>
            <path class="cls-6" d="M171.33,9.33s1.25,1.19,1.25,1.71.4.58.73.58,1-1.49,1.3-1.08a2.93,2.93,0,0,1,.33,1.34l-3.55.9Z"/>
            <path class="cls-6" d="M176,11.55s0-.91.23-.91a6.41,6.41,0,0,0,1.34.17c.5-.06.5-.33.93-.3a10.88,10.88,0,0,1,1.47.34,5.29,5.29,0,0,0-.08-2.19l1,2.44Z"/>
          </g>
          <g>
            <path class="cls-7" d="M152.35,57.92s.45-.33.38-.53a25.23,25.23,0,0,0-1.18-2.71,2.89,2.89,0,0,0-.85-.72c-.43-.28-.91-.5-1.37,0-.87,1-.33,3.76-.08,4.38s.52.37.52.37Z"/>
            <path class="cls-5" d="M152.35,57.92s.45-.33.38-.53-.89-1.92-1.27-2.54c-.13-.21-.43-.31-.69-.5s-.71-.52-1.22.06c-.87,1-.56,3.35-.3,4s.52.37.52.37Z"/>
            <path class="cls-6" d="M152.35,57.92s.47-.32.38-.53-1.13-2-1-1.33.42,1.11.14,1.26-.5-.29-.71-.15,0,.31-.49.65-1,0-1.09.27-.35.55-.05.56S152.35,57.92,152.35,57.92Z"/>
          </g>
          <g>
            <path class="cls-8" d="M166,24.35s-.32.95-.73.9a52.44,52.44,0,0,1-5.66-1.09,6.55,6.55,0,0,1-1.85-1.27c-.77-.67-1.47-1.47-.81-2.53,1.25-2,6.63-2.09,7.91-1.87s1,.81,1,.81Z"/>
            <path class="cls-5" d="M166,24.35s-.32.95-.73.9-4.05-.88-5.42-1.33c-.46-.15-.84-.67-1.34-1.06-.7-.55-1.39-1.1-.66-2.26,1.25-2,5.74-2.34,7-2.12s1,.81,1,.81Z"/>
            <path class="cls-6" d="M166,24.35s-.28,1-.73.9-4.29-1.29-3-1.22,2.29.34,2.38-.23-.84-.8-.71-1.24.54-.21.88-1.15-.55-1.77-.21-2.11.78-.86,1-.32S166,24.35,166,24.35Z"/>
          </g>
          <g>
            <path class="cls-8" d="M167.32,30.37s-.09,1-.49,1a52.44,52.44,0,0,1-5.76.29,6.55,6.55,0,0,1-2.1-.8c-.91-.47-1.78-1.08-1.38-2.27.74-2.23,5.94-3.61,7.24-3.69s1.17.55,1.17.55Z"/>
            <path class="cls-5" d="M167.32,30.37s-.09,1-.49,1-4.15.11-5.58,0a6,6,0,0,1-1.56-.71c-.81-.37-1.61-.74-1.18-2,.74-2.23,5-3.64,6.32-3.73s1.17.55,1.17.55Z"/>
            <path class="cls-6" d="M167.32,30.37s0,1-.49,1-4.47-.24-3.22-.47,2.3-.22,2.26-.79-1-.58-1-1,.47-.33.58-1.33-1-1.59-.7-2,.56-1,.89-.55S167.32,30.37,167.32,30.37Z"/>
          </g>
          <g>
            <path class="cls-9" d="M166.29,37.34s-.34.83-.66.82a37.11,37.11,0,0,1-4.48-.44,4,4,0,0,1-1.39-.92c-.57-.5-1.07-1.11-.44-2.06,1.17-1.78,5.53-2.32,6.54-2.24s.74.6.74.6Z"/>
            <path class="cls-5" d="M166.29,37.34s-.34.83-.66.82-3.2-.4-4.27-.66c-.36-.09-.62-.49-1-.78s-1-.81-.34-1.85c1.17-1.78,4.83-2.46,5.84-2.37s.74.6.74.6Z"/>
            <path class="cls-6" d="M166.29,37.34s-.31.85-.66.82-3.35-.73-2.33-.78,1.82.09,1.94-.4-.61-.61-.47-1,.45-.22.81-1-.29-1.44,0-1.76.7-.79.83-.35S166.29,37.34,166.29,37.34Z"/>
          </g>
          <g>
            <path class="cls-10" d="M166.63,42.21s-.2.57-.44.55a30.81,30.81,0,0,1-3.38-.61,3.78,3.78,0,0,1-1.1-.75c-.46-.4-.87-.87-.46-1.52.76-1.21,4-1.32,4.76-1.19s.59.48.59.48Z"/>
            <path class="cls-5" d="M166.63,42.21s-.2.57-.44.55-2.42-.5-3.24-.76c-.27-.09-.5-.4-.8-.63s-.82-.65-.38-1.35c.76-1.21,3.46-1.46,4.22-1.33s.59.48.59.48Z"/>
            <path class="cls-6" d="M166.63,42.21s-.18.59-.44.55-2.56-.75-1.8-.71,1.37.19,1.43-.16-.5-.48-.41-.74.32-.13.54-.7-.31-1.06-.11-1.27.47-.52.6-.2S166.63,42.21,166.63,42.21Z"/>
          </g>
          <g>
            <path class="cls-11" d="M165.53,45.06s-.27-.85-.55-.92a30.34,30.34,0,0,0-3.89-.61,2.54,2.54,0,0,0-1.22.54,1.23,1.23,0,0,0-.43,1.84c1,1.94,4.72,3.44,5.6,3.6s.65-.39.65-.39Z"/>
            <path class="cls-5" d="M165.53,45.06s-.27-.85-.55-.92a35.15,35.15,0,0,0-3.71-.36c-.31,0-.55.32-.88.5s-.91.52-.34,1.65c1,1.94,4.11,3.41,5,3.57s.65-.39.65-.39Z"/>
            <path class="cls-6" d="M165.53,45.06s-.25-.87-.55-.92-2.92-.08-2,.19,1.58.33,1.67.82-.54.43-.43.82.38.31.67,1.17-.29,1.29,0,1.65.59.9.71.52S165.53,45.06,165.53,45.06Z"/>
          </g>
          <g>
            <path class="cls-12" d="M163.93,50.16s-.18-.54-.35-.58a18.87,18.87,0,0,0-2.42-.42,1.53,1.53,0,0,0-.76.33c-.31.21-.58.5-.25,1.15.62,1.23,3,2.21,3.51,2.31s.4-.24.4-.24Z"/>
            <path class="cls-5" d="M163.93,50.16s-.18-.54-.35-.58a21.75,21.75,0,0,0-2.31-.25c-.19,0-.34.2-.54.31s-.56.32-.2,1A5.85,5.85,0,0,0,163.66,53c.55.11.4-.24.4-.24Z"/>
            <path class="cls-6" d="M163.93,50.16s-.16-.55-.35-.58-1.81-.08-1.27.11,1,.22,1,.53-.33.27-.26.51.24.2.43.74-.17.81,0,1,.37.57.44.33S163.93,50.16,163.93,50.16Z"/>
          </g>
          <g>
            <path class="cls-13" d="M161.78,53.85s.14-.69-.06-.84a27.16,27.16,0,0,0-2.9-1.76,2.69,2.69,0,0,0-1.22,0c-.55.07-1.11.24-1.12,1.14,0,1.69,2.39,4,3,4.45s.7-.05.7-.05Z"/>
            <path class="cls-5" d="M161.78,53.85s.14-.69-.06-.84a32.32,32.32,0,0,0-2.86-1.52c-.25-.11-.58,0-.93.05s-1,.06-1,1c0,1.69,1.91,3.8,2.56,4.21s.7-.05.7-.05Z"/>
            <path class="cls-6" d="M161.78,53.85s.16-.7-.06-.84S159.38,52,160,52.45s1.14.77,1,1.15-.62.12-.69.43.18.35.06,1-.77.81-.72,1.15.1.83.36.61S161.78,53.85,161.78,53.85Z"/>
          </g>
          <g>
            <path class="cls-13" d="M156.68,57.84s.55-.44.48-.68a27.16,27.16,0,0,0-1.11-3.2,2.69,2.69,0,0,0-.92-.81,1.06,1.06,0,0,0-1.59.17c-1.1,1.29-.74,4.63-.5,5.36s.57.4.57.4Z"/>
            <path class="cls-5" d="M156.68,57.84s.55-.44.48-.68a32.32,32.32,0,0,0-1.23-3c-.13-.24-.47-.34-.75-.55s-.77-.57-1.42.18c-1.1,1.29-1,4.15-.72,4.88s.57.4.57.4Z"/>
            <path class="cls-6" d="M156.68,57.84s.57-.43.48-.68-1.12-2.3-1-1.54.39,1.32.05,1.53-.55-.31-.81-.11-.08.39-.63.84-1.11.13-1.29.43-.45.71-.11.7S156.68,57.84,156.68,57.84Z"/>
          </g>
          <g>
            <g>
              <path class="cls-2" d="M195.7,41.15a5.56,5.56,0,0,0,2.56-.2c1.19-.45.74-.53,1.91-.53s2.06.42,2.06,2.13-.78,1.94-2.07,2-4.36.5-4.36.5"/>
              <path class="cls-14" d="M196.06,41.24s.1.14.63.11a1.77,1.77,0,0,0,.69-.12v3.49l-1.76.35Z"/>
            </g>
            <g>
              <path class="cls-15" d="M196.22,38.17s.37,9.68.35,12.9c0,3.89-.36,9.51-8.14,11.85a25.69,25.69,0,0,1-5.11.93c-6.45.58-12-.35-15.05,0a48.84,48.84,0,0,1-13-.47c-5.06-.87-9.94-1.8-9.94-6.51,0-2.09,5.06-.35,7.15-.35s7,.47,10.06-5a23.25,23.25,0,0,0,2.62-11.74l-.17-18.08s.23-9,11.1-10.17,28.48-.76,30.81-.64,12.5,1.22,12.61,8.72a63.52,63.52,0,0,1-1.63,14.47S218,37.3,211,37.42s-18.6,1.55-25.05.87c-4.85-.51-9.19-.41-7.68-7.74"/>
              <path class="cls-16" d="M196.24,38.33,196.67,51a15.51,15.51,0,0,1-1,6.26,9.38,9.38,0,0,1-4.3,4.63,18.17,18.17,0,0,1-6.08,1.93,44.36,44.36,0,0,1-6.37.45c-2.13,0-4.25-.09-6.37-.18-1.06,0-2.12-.09-3.17-.06s-2.1.21-3.17.24a51.38,51.38,0,0,1-12.71-1,17.12,17.12,0,0,1-6.06-2,5,5,0,0,1-2-2.51,5.32,5.32,0,0,1-.29-1.6v-.2a1.12,1.12,0,0,1,0-.22l0-.2.12-.22a1.28,1.28,0,0,1,.74-.47,9.41,9.41,0,0,1,3.22.16,26.36,26.36,0,0,0,3.13.45,11.91,11.91,0,0,0,6.15-1,10,10,0,0,0,4.21-4.56,20.42,20.42,0,0,0,1.93-6,25.55,25.55,0,0,0,.32-3.15c.05-1.05,0-2.12,0-3.18l-.08-6.37-.08-6.37,0-3.18a8.72,8.72,0,0,1,.44-3.17,10.49,10.49,0,0,1,1.39-2.9,12.3,12.3,0,0,1,1-1.27,12.84,12.84,0,0,1,1.19-1.08,13.4,13.4,0,0,1,5.86-2.53,60.37,60.37,0,0,1,6.35-.66c2.12-.15,4.24-.23,6.37-.3q6.37-.18,12.74-.09c2.12,0,4.25.06,6.37.14a23.14,23.14,0,0,1,6.31,1.15,14.31,14.31,0,0,1,2.93,1.35,11.72,11.72,0,0,1,1.32.94,8.51,8.51,0,0,1,1.11,1.19,7.19,7.19,0,0,1,1.36,3c0,.54.14,1.09.14,1.63s0,1.06,0,1.59a62.6,62.6,0,0,1-1.63,12.66v-.06a3.09,3.09,0,0,1-1.79,2.44,8.82,8.82,0,0,1-2.85.88,24,24,0,0,1-2.94.2c-1,0-1.94.06-2.92.11l-11.68.69c-1.95.09-3.9.17-5.85.16-1,0-2,0-2.93-.1s-1.94-.18-2.92-.28a18.62,18.62,0,0,1-2.89-.49,4.72,4.72,0,0,1-2.5-1.48,4.5,4.5,0,0,1-.87-2.76,12.88,12.88,0,0,1,.3-2.91h0a12.83,12.83,0,0,0-.27,2.9,4.42,4.42,0,0,0,.87,2.71,4.62,4.62,0,0,0,2.46,1.42,18.5,18.5,0,0,0,2.87.46c1,.09,1.94.19,2.91.26s1.94.07,2.92.07c1.95,0,3.9-.1,5.84-.21l11.68-.79c1-.06,2-.1,2.93-.13a23.65,23.65,0,0,0,2.89-.22,8.44,8.44,0,0,0,2.71-.86,2.71,2.71,0,0,0,1.55-2.06v-.07a65.73,65.73,0,0,0,1.6-12.56c0-.52,0-1.06,0-1.59s-.09-1-.13-1.54a6.74,6.74,0,0,0-1.27-2.77,8.07,8.07,0,0,0-1.05-1.13,11.3,11.3,0,0,0-1.27-.9,13.87,13.87,0,0,0-2.84-1.31c-4-1.42-8.31-1.15-12.54-1.28s-8.48,0-12.72.08c-2.12.07-4.24.14-6.35.27a60.15,60.15,0,0,0-6.31.62A13.08,13.08,0,0,0,169,14.36a12.55,12.55,0,0,0-1.17,1,12,12,0,0,0-1,1.23,10.21,10.21,0,0,0-1.37,2.81,8.37,8.37,0,0,0-.45,3.09l0,3.18,0,6.37,0,6.37c0,1.06.07,2.12,0,3.19a25.71,25.71,0,0,1-.34,3.17,21.41,21.41,0,0,1-1.93,6.07,10.15,10.15,0,0,1-4.26,4.66,12.13,12.13,0,0,1-6.25,1.11,26.32,26.32,0,0,1-3.17-.43,9.27,9.27,0,0,0-3.11-.14,1,1,0,0,0-.57.35l-.08.12c0,.06,0,.13,0,.19a.81.81,0,0,0,0,.17v.19a5,5,0,0,0,.28,1.51A4.71,4.71,0,0,0,147.65,61a16.85,16.85,0,0,0,5.95,2,51,51,0,0,0,12.62.9c1.05,0,2.09-.21,3.18-.24s2.14,0,3.2.08c2.12.11,4.24.22,6.35.21a44,44,0,0,0,6.32-.42,17.88,17.88,0,0,0,6-1.88,9.15,9.15,0,0,0,4.2-4.49,15.12,15.12,0,0,0,1-6.12l-.26-12.65Z"/>
            </g>
            <path class="cls-17" d="M178.71,37.05a1.05,1.05,0,0,0,.57,1.06,27.3,27.3,0,0,0,6.42,1.16c2.22,0,10.4,0,10.4,0l0-.81s-11.23.35-13.57-.35c-3.52-1-3.64-1.69-3.64-1.69Z"/>
            <path class="cls-18" d="M217.85,15.78S212.32,12,202.32,12s-21.22-.12-24.76.76-6.51.76-6.92,2.56-1.4.52-2.15,1.1-.23,1-.41,1.69-1.86,0-2.15,1.28a97.22,97.22,0,0,0-.47,10.87c.06,2.56,1.16,12.15.29,15.11,0,0-.94,7-5.52,10.64-1.45,1.16-2.56.64-2.79,1.57s-1.28,1.8-1.8,1.16-.35-1.45-1-.87-1.69,2.27-2,1.45-.47-2-1.34-1.63-2.26.22-1.8-.58c.22-.38.41-.51.6-.48,1.64.19,8.32,1.62,11.93-4.29S165,42.11,165,33.8c0-10.81-2-17.4,7.32-21,5.13-2,33.62-1.81,35.88-1.4S215.66,12.72,217.85,15.78Z"/>
            <path class="cls-19" d="M190.22,23l12.83.1,7.48.06s3.88,0,4.94.13a8,8,0,0,0-5.65-1.15c-3,.35-2.73-.31-5.48-.31-1.28,0-4.89.73-6.82.28C196.28,21.87,190.22,23,190.22,23Z"/>
            <path class="cls-19" d="M191.69,30.32a25.42,25.42,0,0,0,10.85,2.14c6.47-.08,8.81-1.9,8.81-1.9Z"/>
            <path class="cls-20" d="M187,28.74s9.08,3.64,15.8,3.33,10.35-2.08,10.74-2.74-7.6-.09-13.6.3A62,62,0,0,1,187,28.74Z"/>
            <path class="cls-21" d="M185.35,23.18s28.48,0,30.92.35,3,.64,3,1.4-1.86,5.81-17.79,5.64-17.61-3.78-18-4.42A2,2,0,0,1,185.35,23.18Z"/>
            <g>
              <path class="cls-22" d="M185.35,23.18a2.21,2.21,0,0,0,2.38,2,3,3,0,0,0,2.82-2Z"/>
              <path class="cls-22" d="M191.45,23.21a1.82,1.82,0,0,0,2,1.83A3.15,3.15,0,0,0,196.25,24c.12-.12,0-.76,0-.76Z"/>
              <path class="cls-22" d="M197.26,23.21a3,3,0,0,0,3.17,2.07c2.7.06,2.7-2,2.7-2Z"/>
              <path class="cls-22" d="M204.53,23.25a2.26,2.26,0,0,0,2.5,1.93,3.55,3.55,0,0,0,3.08-1.86Z"/>
              <path class="cls-22" d="M211.18,23.34s-.11,1.7,1.34,1.7,2.06-1.62,2.06-1.62Z"/>
              <path class="cls-22" d="M215.37,23.46A1.39,1.39,0,0,0,216.82,25a3.3,3.3,0,0,0,2.29-.67s-.37-.54-2.51-.79C215.66,23.46,215.37,23.46,215.37,23.46Z"/>
              <path class="cls-22" d="M214.13,29.05a2.8,2.8,0,0,0-.13-1.3c-.23-.35-.6-2.11.73-2.14s2.91-.58,3.23.23.15,1,.15,1-.41.34-.88.68c-.26.18-.55.35-.78.48a11.38,11.38,0,0,1-1.18.57C214.65,28.89,214.13,29.05,214.13,29.05Z"/>
              <path class="cls-22" d="M213,29.41a12.79,12.79,0,0,0,.31-2.6c0-1.1-1-1.39-1.74-1.39s-3.08-.17-3.17,1.8a10,10,0,0,0,.22,3s.79-.08,2.23-.33C211.84,29.71,213,29.41,213,29.41Z"/>
              <path class="cls-22" d="M207.75,30.32c.2-.09.27-1.27.24-2.81s-.35-1.92-2.06-1.89-2.91-.09-2.88,1,.35,4,.35,4,1.3,0,2.15-.07S207.65,30.37,207.75,30.32Z"/>
              <path class="cls-22" d="M201.37,30.56V27.42s.77-1.63-1.6-1.66-2,.26-2.21.38-.19.61-.19,2.27v2s1.32.11,2,.13Z"/>
              <path class="cls-22" d="M195.48,30.27a10.61,10.61,0,0,1-.34-1.63,14.52,14.52,0,0,0,.18-1.92c-.06-.7-.33-1.17-2-1.11s-1.9.55-1.9,1.33v2.76A31.29,31.29,0,0,0,195.48,30.27Z"/>
            </g>
            <g>
              <path class="cls-23" d="M189.21,29.33a7.92,7.92,0,0,0,.57-1.58c.12-.64.55-1.33-.38-1.56l-.52-.09c-.15,0-.65,1.25-.82,1.23S188,26,187.72,26c-.74,0-1.45,0-1.77.53a1.59,1.59,0,0,0,.27,1.84A13.17,13.17,0,0,0,188,29Z"/>
              <path class="cls-23" d="M195.29,30.27a7.45,7.45,0,0,1-.54-1.63,12.77,12.77,0,0,0,.25-1.91c0-.57-.1-.62-1.13-.69-.24,0-1,.76-1.31.77s0-1-.22-1c-1.06.17-1.16.65-1.16,1.31s-.19,2.57-.19,2.57A35.89,35.89,0,0,0,195.29,30.27Z"/>
              <path class="cls-23" d="M196.8,30.39a14.56,14.56,0,0,1,.47-3.16c.26-.17.26,0,.81-.36s.47,2.2,1.63,2.18,2-2.72,2-2,.25,3.5.25,3.5S197.13,30.41,196.8,30.39Z"/>
              <path class="cls-23" d="M203.4,30.55l-.26-2.67s.78-.1.87-.65a1.82,1.82,0,0,1,1.92-1.61c1.42,0,.35,1.47,1,1.86s1.09.28,1.06,1-.08,1.79-.25,1.82S203.79,30.55,203.4,30.55Z"/>
              <path class="cls-23" d="M208.59,30.23a3.83,3.83,0,0,0,.49-1.86c0-1.12-.12-3.35.76-2.41s.7,2,1.58,1.7,1.16-2,1.33-1.89.81.33.44,2.4c0,0-.37,1.32-1.06,1.47S208.79,30.2,208.59,30.23Z"/>
              <path class="cls-23" d="M214.13,29.05a5.64,5.64,0,0,0,.3-1.72,1.65,1.65,0,0,1,1.37-1.81c.91-.1,1.9-.32,2.16.33s.2,1-.27,1.38A9.71,9.71,0,0,1,214.13,29.05Z"/>
              <path class="cls-23" d="M185.35,23.18s.28,1.63,1.42,1.86c.72.15.76-1.31.88-1.27s-.23,1.46.22,1.41a2.86,2.86,0,0,0,2.68-2"/>
              <path class="cls-23" d="M191.45,23.21a4.45,4.45,0,0,1,1.58.91c.41.51.2.92,1.06.89A2.92,2.92,0,0,0,196.25,24c.13-.16,0-.76,0-.76Z"/>
              <path class="cls-23" d="M197.26,23.21a2.94,2.94,0,0,0,2.22,2c1.72.27,1.18-1.92,2-1.93S197.26,23.21,197.26,23.21Z"/>
              <path class="cls-23" d="M204.53,23.25a2.37,2.37,0,0,0,2.28,1.93,1.54,1.54,0,0,0,1.54-1.89Z"/>
              <path class="cls-23" d="M214.59,23.42l-3.4-.09s0,1.71,1.19,1.7.45-.87.74-1S214.25,24.07,214.59,23.42Z"/>
              <path class="cls-23" d="M215.37,23.46s-.1,1.41,1.11,1.55.89-.8,1.31-.76a.83.83,0,0,0,.67-.27A12.74,12.74,0,0,0,215.37,23.46Z"/>
              <path class="cls-22" d="M189.21,29.33a5.2,5.2,0,0,0,.73-1.53c.12-.64.38-1.57-.55-1.8s-2.91-.49-3.49.47a1.63,1.63,0,0,0,.32,1.87A13.17,13.17,0,0,0,188,29Z"/>
            </g>
            <g>
              <path class="cls-24" d="M183.51,24.25s.7-.07,3.06-.07,26.22-.67,28.25-.07a11.43,11.43,0,0,0,4.3.26s-.28-.83-4.11-.93l-18-.24s-10.46-.1-11.84,0A1.67,1.67,0,0,0,183.51,24.25Z"/>
              <path class="cls-24" d="M183.88,26.87a46,46,0,0,0,16.06,2.76c8.2-.29,14.24-.59,19.07-3.87,0,0-1,4.8-17.5,4.8C186.74,30.55,183.88,26.87,183.88,26.87Z"/>
            </g>
            <path class="cls-25" d="M195.68,44.12s.47,7.09,0,9.38-.7,3.85-2.91,5.82-9.48,2.55-9.12-6.63-1.28-11.72.44-11.86c4-.33,5.37,1.62,7.36,1.09C194.32,41.14,195.59,42.57,195.68,44.12Z"/>
            <path class="cls-3" d="M178.24,33.5s.31-3.33,1.59-2.29.74,4.26,2.05,4.61,1.24-.66,3.47-.43,1.8,2,4.13,2,2.13-1.55,3.29-1.55,1.2,1.7,2.25,1.55,2.36.47,3.29-.62,4.15.89,4.15.89-12.52,1-16.16.43S179.05,38.46,178.24,33.5Z"/>
            <g>
              <path class="cls-20" d="M173.63,45.09s-.83.79-.23,3.51,1.76,3.06,3.06,3.14,2.52-2.6,2.52-2.6Z"/>
              <path class="cls-2" d="M173.16,45s1.24,5.81,3.41,6S179,50,179,48.42A7,7,0,0,0,177,44"/>
              <path class="cls-26" d="M176.9,44.39a11.39,11.39,0,0,1,1.18,3.72,10,10,0,0,1,0,2.54s1.1-.51.76-2.95A4.48,4.48,0,0,0,176.9,44.39Z"/>
            </g>
            <path class="cls-3" d="M174.25,62.61c-4.26.15-9.3,1.16-11.08.85s-.7-.93-2.09-.85-.51.51-2,.45a22.1,22.1,0,0,0-3.79.35s8.74,1.1,13,.47,10.25.26,11.57.2,3.83-.61,3.46-1.77-.91.08-2.07,0a41.85,41.85,0,0,0-4.81-.5C174.56,61.83,176.18,62.54,174.25,62.61Z"/>
          </g>
          <g>
            <path class="cls-27" d="M180.55,10.54s-3.44,4,4,4a9.22,9.22,0,0,0,6.32-2.38,6.65,6.65,0,0,0,2.52,0c.89-.31,1.78-1.43,1.07-1.4"/>
            <g>
              <path class="cls-28" d="M196,8.13a3.76,3.76,0,0,1-7.5,0c0-1.18-.18-2.81.81-3.43.6-.37,2.16,0,2.94,0A3.6,3.6,0,0,1,196,8.13Z"/>
              <path class="cls-29" d="M196,8.13a3.18,3.18,0,0,1-3.76,3.12c-1.48-.28-1.55-.52-.9-1.37.48-.62.47-.84.9-1.48s-.14-3.34.64-3.34A3,3,0,0,1,196,8.13Z"/>
              <path class="cls-28" d="M192.21,7.65a6,6,0,0,1-6,6,7.11,7.11,0,0,1-5-2.29,5.25,5.25,0,0,1-1.05-3.75c0-.36-.15-2.89,1.18-4.25s4.39-1.79,4.86-1.79A6,6,0,0,1,192.21,7.65Z"/>
              <path class="cls-29" d="M192.21,7.65a5.72,5.72,0,0,1-5.89,5.81c-1.83,0-3-1.27-4.14-2.56a5.52,5.52,0,0,1-1.74-3.63,4.52,4.52,0,0,1,1.51-2.88,5,5,0,0,1,3.6-1.51C188.89,2.88,192.21,4.31,192.21,7.65Z"/>
              <path class="cls-30" d="M192.21,7.66c0,3.34-3.08,5.55-5.47,5.8a2.93,2.93,0,0,1-3-1c-.22-.29.94-.69,1.36-.92.59-.31,2,2.15,3.37.78s.28-4.15.75-4.15C192.54,8.19,192.21,4.32,192.21,7.66Z"/>
              <circle class="cls-31" cx="190.35" cy="8.68" r="1.14"/>
              <ellipse class="cls-31" cx="194.42" cy="8.44" rx="0.85" ry="0.76"/>
              <path class="cls-30" d="M196,8.13a3.18,3.18,0,0,1-3.76,3.12c-1.48-.28-1.55-.52-.9-1.37.48-.62,1,1.18,1.48.54a1.4,1.4,0,0,1,1.41-.79C196.27,9.63,196,6.54,196,8.13Z"/>
            </g>
          </g>
          <polygon class="cls-22" points="190.22 23.05 215.47 23.34 215.01 23.05 191.15 22.87 190.22 23.05"/>
          <path class="cls-22" d="M172.9,69.31s.32,1.25,1.23,1.44a5.23,5.23,0,0,0,2.29-.12,4.75,4.75,0,0,1-3.18.4C172.66,70.85,172.9,69.31,172.9,69.31Z"/>
          <path class="cls-22" d="M183.7,69.17a1.28,1.28,0,0,0,1.4,1.57,2.52,2.52,0,0,0,2-.78s-1.46.68-2.1.32A7.42,7.42,0,0,1,183.7,69.17Z"/>
        </g>
        <g>
          <path class="cls-32" d="M.9,40.78.51,4l13.43.26L13,40.82Z"/>
          <path class="cls-32" d="M17.17,42l-.24-34.7L38.7,19.91,37.64,4.7l14.58-.79,1.23,37.71L30.69,31.13,31.11,42Z"/>
          <path class="cls-32" d="M78.08,3.82l-2.9,8.42q-4.53-1.54-5.89.42-1.8,2.53,3.06,6a45.74,45.74,0,0,0,4.44,2.73l.55.31.48.26.95.51a15.55,15.55,0,0,1,1.39.86,9.8,9.8,0,0,1,4,5.63,10,10,0,0,1-.62,6.68A13.12,13.12,0,0,1,79.42,41a15,15,0,0,1-7.52,2.57,19.17,19.17,0,0,1-6.07-.59A45.49,45.49,0,0,1,59.65,41l4.73-8.36a6.82,6.82,0,0,0,4.27,1.39q1.89-.18,1.5-2.22a4.6,4.6,0,0,0-1.41-2.4,14.93,14.93,0,0,0-3.23-2.11l-1-.51-1-.53q-1.23-.62-2.07-1.12-5.19-3-6.33-7.65A10.76,10.76,0,0,1,56,9.8a12,12,0,0,1,5.58-5.32A20.43,20.43,0,0,1,72.21,2.57,23.19,23.19,0,0,1,78.08,3.82Z"/>
          <path class="cls-32" d="M84.65,4.22l31.29-1.56.39,10.42-10.66.66.75,27.09-12.6.48-.13-26.85L85.07,15Z"/>
          <path class="cls-32" d="M128.33,42.78l-13-4.31L134.42,1,156.1,36.78l-9.78,6.33-3.12-6-12.64-.31Zm10.44-14-3.06-5.83-2.07,5.61Z"/>
        </g>
        <g>
          <path class="cls-33" d="M58.58,48.18l16.56-.83.21,5.52-5.65.35.4,14.34-6.67.26-.07-14.21-4.56.28Z"/>
          <path class="cls-33" d="M88.37,69.15,82.84,61.4l.29,6.46L76.6,68,76.43,48.6a21.82,21.82,0,0,1,7.48-.81,10.39,10.39,0,0,1,5.35,1.64,7,7,0,0,1,2.89,5.34A5.9,5.9,0,0,1,92.07,57a5.39,5.39,0,0,1-.79,1.9,4.94,4.94,0,0,1-1.87,1.64l4.21,4.28Zm-3-14.45a2.16,2.16,0,0,0-.48-1.4,2.56,2.56,0,0,0-1-.7,3.94,3.94,0,0,0-1.52-.27L82.61,57A3.23,3.23,0,0,0,84,56.8,2,2,0,0,0,85.39,54.7Z"/>
          <path class="cls-33" d="M101.08,68.6l-6.87-2.28,10.09-19.82,11.48,18.93-5.18,3.35L109,65.61l-6.69-.16Zm5.53-7.43L105,58.09l-1.09,3Z"/>
          <path class="cls-33" d="M123.78,53.56V56l4.35.19-.31,4.89-4.1-.34-.06,6.36-7.14.38.08-20,14,.3L130.18,54Z"/>
          <path class="cls-33" d="M138.43,53.56V56l4.35.19-.31,4.89-4.1-.34-.06,6.36-7.13.38.08-20,14,.3L144.83,54Z"/>
        </g>
      </g>
    </g>
  </g>
</svg>
